<?xml version="1.0" standalone="no"?>
<!DOCTYPE svg PUBLIC "-//W3C//DTD SVG 20010904//EN"
 "http://www.w3.org/TR/2001/REC-SVG-20010904/DTD/svg10.dtd">
<svg version="1.0" xmlns="http://www.w3.org/2000/svg"
 width="150.000000pt" height="150.000000pt" viewBox="0 0 150.000000 150.000000"
 preserveAspectRatio="xMidYMid meet">
<metadata>
Created by potrace 1.14, written by Peter Selinger 2001-2017
</metadata>
<g transform="translate(0.000000,150.000000) scale(0.100000,-0.100000)"
fill="#000000" stroke="none">
<path d="M724 1465 c-19 -21 -45 -37 -74 -44 -88 -23 -110 -41 -136 -109 -1
-1 -13 4 -29 12 -34 18 -48 15 -130 -24 -51 -24 -72 -30 -100 -24 l-36 6 7
-40 c5 -34 1 -50 -24 -94 -40 -71 -46 -102 -27 -138 15 -29 15 -30 -10 -36
-34 -8 -62 -46 -81 -108 -17 -59 -30 -78 -62 -95 l-24 -13 35 -31 c25 -23 40
-52 57 -104 20 -64 26 -74 59 -89 46 -22 46 -21 32 -38 -21 -25 -15 -69 19
-135 26 -52 31 -72 26 -103 l-6 -38 39 6 c32 5 49 1 97 -26 57 -31 100 -36
144 -16 11 4 21 -4 34 -28 18 -34 49 -52 128 -76 21 -6 49 -26 64 -43 19 -24
27 -28 31 -18 11 27 54 59 88 65 69 13 106 35 121 72 12 28 19 34 32 28 44
-18 72 -15 133 16 48 24 73 31 105 28 l43 -3 -6 42 c-5 35 -1 50 19 81 43 64
53 106 34 144 -15 29 -12 38 14 38 27 0 56 41 79 110 12 36 29 71 39 78 9 7
24 17 32 23 12 8 12 12 2 16 -29 11 -62 55 -72 96 -6 23 -14 50 -16 60 -8 27
-52 67 -74 67 -22 0 -26 10 -10 26 22 22 17 72 -12 126 -33 60 -42 102 -27
130 9 17 7 18 -33 13 -36 -5 -54 0 -113 30 -69 36 -109 40 -142 13 -9 -7 -16
0 -26 24 -18 43 -30 52 -98 73 -61 19 -78 30 -100 62 l-15 22 -30 -34z"/>
</g>
</svg>
